<svg xmlns="http://www.w3.org/2000/svg" xmlns:xlink="http://www.w3.org/1999/xlink" width="375" zoomAndPan="magnify" viewBox="0 0 375 374.999991" height="375" preserveAspectRatio="xMidYMid meet" version="1.0"><defs><g></g><clipPath id="id1"><path d="M 132 194 L 242 194 L 242 215.726562 L 132 215.726562 Z M 132 194 " clip-rule="nonzero" class="svg-elem-1"></path></clipPath><clipPath id="id2"><path d="M 130.867188 92.726562 L 230 92.726562 L 230 208 L 130.867188 208 Z M 130.867188 92.726562 " clip-rule="nonzero" class="svg-elem-2"></path></clipPath><clipPath id="id3"><path d="M 218.664062 135.972656 C 219.480469 145.359375 217.792969 153.902344 213.605469 161.601562 C 212.910156 172.503906 210.453125 181.664062 206.230469 189.082031 L 220.488281 195.949219 L 220.488281 191.539062 L 226.851562 191.539062 C 231.734375 175.136719 229.007812 156.617188 218.664062 135.96875 Z M 167.652344 190.164062 C 197.707031 148.027344 194.984375 115.550781 159.480469 92.726562 C 171.722656 116.738281 167.488281 138.273438 146.78125 157.328125 C 133.445312 171.84375 129.085938 190.300781 131.585938 207.109375 Z M 167.652344 190.164062 " clip-rule="evenodd" class="svg-elem-3"></path></clipPath><clipPath id="id4"><path d="M 159 92.726562 L 244.117188 92.726562 L 244.117188 207 L 159 207 Z M 159 92.726562 " clip-rule="nonzero" class="svg-elem-4"></path></clipPath><clipPath id="id5"><path d="M 218.664062 135.972656 C 229.003906 156.617188 231.734375 175.140625 226.851562 191.539062 L 233.210938 191.539062 L 233.167969 197.25 L 233.167969 202.0625 L 241.941406 206.289062 C 248.480469 182.421875 239.761719 154.929688 218.664062 135.972656 Z M 159.480469 92.726562 C 194.984375 115.550781 197.707031 148.027344 167.652344 190.164062 L 185.5625 198.792969 L 206.230469 189.082031 C 210.453125 181.667969 212.910156 172.507812 213.605469 161.601562 C 214.503906 122.550781 196.460938 99.589844 159.480469 92.726562 Z M 159.480469 92.726562 " clip-rule="evenodd" class="svg-elem-5"></path></clipPath><clipPath id="id6"><path d="M 130.867188 92.726562 L 230 92.726562 L 230 208 L 130.867188 208 Z M 130.867188 92.726562 " clip-rule="nonzero" class="svg-elem-6"></path></clipPath><clipPath id="id7"><path d="M 218.664062 135.972656 C 219.480469 145.359375 217.792969 153.902344 213.605469 161.601562 C 212.910156 172.503906 210.453125 181.664062 206.230469 189.082031 L 220.488281 195.949219 L 220.488281 191.539062 L 226.851562 191.539062 C 231.734375 175.136719 229.007812 156.617188 218.664062 135.96875 Z M 167.652344 190.164062 C 197.707031 148.027344 194.984375 115.550781 159.480469 92.726562 C 171.722656 116.738281 167.488281 138.273438 146.78125 157.328125 C 133.445312 171.84375 129.085938 190.300781 131.585938 207.109375 Z M 167.652344 190.164062 " clip-rule="evenodd" class="svg-elem-7"></path></clipPath><clipPath id="id8"><path d="M 159 92.726562 L 244.117188 92.726562 L 244.117188 207 L 159 207 Z M 159 92.726562 " clip-rule="nonzero" class="svg-elem-8"></path></clipPath><clipPath id="id9"><path d="M 218.664062 135.972656 C 229.003906 156.617188 231.734375 175.140625 226.851562 191.539062 L 233.210938 191.539062 L 233.167969 197.25 L 233.167969 202.0625 L 241.941406 206.289062 C 248.480469 182.421875 239.761719 154.929688 218.664062 135.972656 Z M 159.480469 92.726562 C 194.984375 115.550781 197.707031 148.027344 167.652344 190.164062 L 185.5625 198.792969 L 206.230469 189.082031 C 210.453125 181.667969 212.910156 172.507812 213.605469 161.601562 C 214.503906 122.550781 196.460938 99.589844 159.480469 92.726562 Z M 159.480469 92.726562 " clip-rule="evenodd" class="svg-elem-9"></path></clipPath></defs><g clip-path="url(#id1)"><path fill="#2491cf" d="M 185.273438 208.59375 L 194.625 213.128906 L 194.625 215.617188 L 202.644531 215.617188 L 202.644531 212.046875 L 190.386719 206.140625 L 205.789062 198.75 L 233.207031 212.046875 L 233.207031 214.535156 L 241.226562 214.535156 L 241.226562 210.96875 L 230.933594 206.007812 L 230.933594 196.625 L 223.675781 196.625 L 223.675781 202.511719 L 206.21875 194.097656 L 185.550781 203.8125 L 167.640625 195.179688 L 132.203125 211.832031 L 132.203125 215.617188 L 138.59375 215.726562 L 138.59375 213.5625 L 167.207031 199.828125 L 180.402344 206.230469 Z M 185.273438 208.59375 " fill-opacity="1" fill-rule="evenodd" class="svg-elem-10"></path></g><path fill="#d9d9d9" d="M 164.285156 205.210938 L 166.902344 205.210938 L 166.902344 207.824219 L 164.285156 207.824219 Z M 167.417969 208.339844 L 170.035156 208.339844 L 170.035156 210.949219 L 167.417969 210.949219 Z M 164.285156 208.339844 L 166.902344 208.339844 L 166.902344 210.949219 L 164.285156 210.949219 Z M 167.417969 205.210938 L 170.035156 205.210938 L 170.035156 207.824219 L 167.417969 207.824219 Z M 167.417969 205.210938 " fill-opacity="1" fill-rule="evenodd" class="svg-elem-11"></path><path fill="#d9d9d9" d="M 202.847656 202.4375 L 205.464844 202.4375 L 205.464844 205.050781 L 202.847656 205.050781 Z M 205.980469 205.566406 L 208.597656 205.566406 L 208.597656 208.175781 L 205.980469 208.175781 Z M 202.847656 205.566406 L 205.464844 205.566406 L 205.464844 208.175781 L 202.847656 208.175781 Z M 205.980469 202.4375 L 208.597656 202.4375 L 208.597656 205.050781 L 205.980469 205.050781 Z M 205.980469 202.4375 " fill-opacity="1" fill-rule="evenodd" class="svg-elem-12"></path><g clip-path="url(#id2)"><g clip-path="url(#id3)"><path fill="#ed3237" d="M 130.867188 92.726562 L 130.867188 207.109375 L 231.734375 207.109375 L 231.734375 92.726562 Z M 130.867188 92.726562 " fill-opacity="1" fill-rule="nonzero" class="svg-elem-13"></path></g></g><g clip-path="url(#id4)"><g clip-path="url(#id5)"><path fill="#ed3237" d="M 159.480469 92.726562 L 159.480469 206.289062 L 244.117188 206.289062 L 244.117188 92.726562 Z M 159.480469 92.726562 " fill-opacity="1" fill-rule="nonzero" class="svg-elem-14"></path></g></g><g clip-path="url(#id6)"><g clip-path="url(#id7)"><path fill="#ed3237" d="M 130.867188 92.726562 L 130.867188 207.109375 L 231.734375 207.109375 L 231.734375 92.726562 Z M 130.867188 92.726562 " fill-opacity="1" fill-rule="nonzero" class="svg-elem-15"></path></g></g><g clip-path="url(#id8)"><g clip-path="url(#id9)"><path fill="#ed3237" d="M 159.480469 92.726562 L 159.480469 206.289062 L 244.117188 206.289062 L 244.117188 92.726562 Z M 159.480469 92.726562 " fill-opacity="1" fill-rule="nonzero" class="svg-elem-16"></path></g></g><g fill="#f58634" fill-opacity="1"><g transform="translate(84.045938, 261.285342)"><g><path d="M 1.0625 0 L 1.0625 -2.53125 L 2.09375 -2.625 C 2.695312 -2.6875 3 -2.976562 3 -3.5 L 3 -18.046875 L 1.21875 -18.140625 L 1.21875 -20.796875 L 16.328125 -20.796875 L 16.328125 -15.609375 L 13.140625 -15.390625 L 13.140625 -16.640625 C 13.140625 -16.992188 13.085938 -17.242188 12.984375 -17.390625 C 12.878906 -17.535156 12.628906 -17.609375 12.234375 -17.609375 L 6.8125 -17.609375 L 6.8125 -12.078125 L 14.515625 -12.078125 L 14.515625 -8.890625 L 6.8125 -8.890625 L 6.8125 -2.75 L 9.609375 -2.65625 L 9.609375 0 Z M 1.0625 0 " class="svg-elem-17"></path></g></g></g><g fill="#f58634" fill-opacity="1"><g transform="translate(101.030607, 261.285342)"><g><path d="M 2.125 -3.5 L 7.15625 -18.078125 L 5.1875 -18.265625 L 5.1875 -20.796875 L 12.359375 -20.796875 L 18.734375 -2.75 L 18.765625 -2.75 L 20.546875 -2.65625 L 20.546875 0 L 12.484375 0 L 12.484375 -2.53125 L 13.671875 -2.625 C 14.023438 -2.664062 14.265625 -2.75 14.390625 -2.875 C 14.515625 -3 14.523438 -3.226562 14.421875 -3.5625 L 13.765625 -5.5 L 6.4375 -5.5 L 5.5 -2.75 L 7.375 -2.65625 L 7.375 0 L 0.15625 0 L 0.15625 -2.53125 L 1.1875 -2.625 C 1.625 -2.664062 1.9375 -2.957031 2.125 -3.5 Z M 10.109375 -17.296875 L 7.1875 -8.390625 L 13.015625 -8.390625 L 10.203125 -17.296875 Z M 10.109375 -17.296875 " class="svg-elem-18"></path></g></g></g><g fill="#f58634" fill-opacity="1"><g transform="translate(121.737519, 261.285342)"><g><path d="M 1.21875 -20.796875 L 10.046875 -20.796875 C 14.546875 -20.796875 16.796875 -19.054688 16.796875 -15.578125 C 16.796875 -13.660156 15.835938 -12.203125 13.921875 -11.203125 C 15.148438 -10.890625 16.113281 -10.316406 16.8125 -9.484375 C 17.507812 -8.648438 17.859375 -7.5625 17.859375 -6.21875 C 17.859375 -4.195312 17.175781 -2.65625 15.8125 -1.59375 C 14.445312 -0.53125 12.460938 0 9.859375 0 L 1.0625 0 L 1.0625 -2.53125 L 2.09375 -2.625 C 2.695312 -2.6875 3 -2.976562 3 -3.5 L 3 -18.046875 L 1.21875 -18.140625 Z M 6.8125 -9.484375 L 6.8125 -2.9375 L 9.765625 -2.9375 C 12.472656 -2.9375 13.828125 -4.039062 13.828125 -6.25 C 13.828125 -7.289062 13.488281 -8.085938 12.8125 -8.640625 C 12.132812 -9.203125 11.171875 -9.484375 9.921875 -9.484375 Z M 6.8125 -17.921875 L 6.8125 -12.265625 L 9.140625 -12.265625 C 10.429688 -12.265625 11.382812 -12.53125 12 -13.0625 C 12.613281 -13.59375 12.921875 -14.335938 12.921875 -15.296875 C 12.921875 -16.253906 12.613281 -16.929688 12 -17.328125 C 11.382812 -17.722656 10.503906 -17.921875 9.359375 -17.921875 Z M 6.8125 -17.921875 " class="svg-elem-19"></path></g></g></g><g fill="#f58634" fill-opacity="1"><g transform="translate(140.56767, 261.285342)"><g><path d="M 15.859375 0 L 1 0 L 1 -2.53125 L 2.03125 -2.625 C 2.632812 -2.6875 2.9375 -2.976562 2.9375 -3.5 L 2.9375 -18.046875 L 1.15625 -18.140625 L 1.15625 -20.796875 L 8.703125 -20.796875 L 8.703125 -18.265625 L 7.65625 -18.171875 C 7.050781 -18.109375 6.75 -17.773438 6.75 -17.171875 L 6.75 -3.21875 L 11.953125 -3.21875 C 12.242188 -3.21875 12.4375 -3.296875 12.53125 -3.453125 C 12.625 -3.609375 12.671875 -3.863281 12.671875 -4.21875 L 12.671875 -6.40625 L 15.859375 -6.1875 Z M 15.859375 0 " class="svg-elem-20"></path></g></g></g><g fill="#f58634" fill-opacity="1"><g transform="translate(157.364666, 261.285342)"><g><path d="M 10.796875 -21.171875 C 13.273438 -21.171875 15.347656 -20.296875 17.015625 -18.546875 C 18.679688 -16.796875 19.515625 -14.117188 19.515625 -10.515625 C 19.515625 -6.921875 18.6875 -4.203125 17.03125 -2.359375 C 15.375 -0.515625 13.128906 0.40625 10.296875 0.40625 C 7.472656 0.40625 5.257812 -0.507812 3.65625 -2.34375 C 2.050781 -4.175781 1.25 -6.847656 1.25 -10.359375 C 1.25 -12.273438 1.53125 -13.957031 2.09375 -15.40625 C 2.65625 -16.851562 3.394531 -17.972656 4.3125 -18.765625 C 6.164062 -20.367188 8.328125 -21.171875 10.796875 -21.171875 Z M 5.15625 -10.515625 C 5.15625 -5.335938 6.953125 -2.75 10.546875 -2.75 C 12.460938 -2.75 13.804688 -3.539062 14.578125 -5.125 C 15.285156 -6.519531 15.640625 -8.234375 15.640625 -10.265625 C 15.640625 -12.078125 15.328125 -13.742188 14.703125 -15.265625 C 14.347656 -16.097656 13.8125 -16.753906 13.09375 -17.234375 C 12.375 -17.710938 11.441406 -17.953125 10.296875 -17.953125 C 9.148438 -17.953125 8.160156 -17.578125 7.328125 -16.828125 C 6.503906 -16.078125 5.9375 -15.171875 5.625 -14.109375 C 5.3125 -13.046875 5.15625 -11.847656 5.15625 -10.515625 Z M 5.15625 -10.515625 " class="svg-elem-21"></path></g></g></g><g fill="#f58634" fill-opacity="1"><g transform="translate(178.134136, 261.285342)"><g></g></g></g><g fill="#f58634" fill-opacity="1"><g transform="translate(184.389997, 261.285342)"><g><path d="M 2.9375 -3.65625 L 2.9375 -18.046875 L 1.15625 -18.140625 L 1.15625 -20.796875 L 8.734375 -20.796875 L 8.734375 -18.265625 L 7.6875 -18.171875 C 7.082031 -18.109375 6.78125 -17.773438 6.78125 -17.171875 L 6.78125 -2.75 L 8.578125 -2.65625 L 8.578125 0 L 1 0 L 1 -2.53125 L 2.03125 -2.625 C 2.34375 -2.664062 2.570312 -2.753906 2.71875 -2.890625 C 2.863281 -3.023438 2.9375 -3.28125 2.9375 -3.65625 Z M 2.9375 -3.65625 " class="svg-elem-22"></path></g></g></g><g fill="#f58634" fill-opacity="1"><g transform="translate(193.992746, 261.285342)"><g><path d="M 1 0 L 1 -2.53125 L 2.125 -2.625 C 2.664062 -2.664062 2.9375 -2.957031 2.9375 -3.5 L 2.9375 -18.046875 L 1.15625 -18.140625 L 1.15625 -20.796875 L 6.78125 -20.796875 L 15.640625 -6.4375 L 15.703125 -6.4375 L 15.703125 -18.046875 L 13.640625 -18.140625 L 13.640625 -20.796875 L 21.265625 -20.796875 L 21.265625 -18.265625 L 20.140625 -18.171875 C 19.640625 -18.128906 19.390625 -17.804688 19.390625 -17.203125 L 19.390625 0 L 15.734375 0 L 6.6875 -14.578125 L 6.625 -14.578125 L 6.625 -2.75 L 8.671875 -2.65625 L 8.671875 0 Z M 1 0 " class="svg-elem-23"></path></g></g></g><g fill="#f58634" fill-opacity="1"><g transform="translate(216.044669, 261.285342)"><g></g></g></g><g fill="#f58634" fill-opacity="1"><g transform="translate(222.300531, 261.285342)"><g><path d="M 6.8125 -3.5 L 6.8125 -17.703125 L 4.375 -17.703125 C 3.894531 -17.703125 3.65625 -17.378906 3.65625 -16.734375 L 3.65625 -15.265625 L 0.46875 -15.484375 L 0.46875 -20.796875 L 16.828125 -20.796875 L 16.828125 -15.484375 L 13.640625 -15.265625 L 13.640625 -16.734375 C 13.640625 -17.085938 13.585938 -17.335938 13.484375 -17.484375 C 13.378906 -17.628906 13.128906 -17.703125 12.734375 -17.703125 L 10.609375 -17.703125 L 10.609375 -2.75 L 13.078125 -2.65625 L 13.078125 0 L 4.25 0 L 4.25 -2.53125 L 5.90625 -2.625 C 6.507812 -2.6875 6.8125 -2.976562 6.8125 -3.5 Z M 6.8125 -3.5 " class="svg-elem-24"></path></g></g></g><g fill="#f58634" fill-opacity="1"><g transform="translate(239.597998, 261.285342)"><g><path d="M 15.609375 -3.65625 L 15.609375 -9.078125 L 6.75 -9.078125 L 6.75 -2.75 L 8.578125 -2.65625 L 8.578125 0 L 1 0 L 1 -2.53125 L 2.03125 -2.625 C 2.632812 -2.6875 2.9375 -2.976562 2.9375 -3.5 L 2.9375 -18.046875 L 1.15625 -18.140625 L 1.15625 -20.796875 L 8.734375 -20.796875 L 8.734375 -18.265625 L 7.6875 -18.171875 C 7.351562 -18.128906 7.113281 -18.039062 6.96875 -17.90625 C 6.820312 -17.769531 6.75 -17.515625 6.75 -17.140625 L 6.75 -12.296875 L 15.609375 -12.296875 L 15.609375 -18.046875 L 13.828125 -18.140625 L 13.828125 -20.796875 L 21.390625 -20.796875 L 21.390625 -18.265625 L 20.359375 -18.171875 C 19.753906 -18.109375 19.453125 -17.773438 19.453125 -17.171875 L 19.453125 -2.75 L 21.234375 -2.65625 L 21.234375 0 L 13.671875 0 L 13.671875 -2.53125 L 14.703125 -2.625 C 15.015625 -2.664062 15.242188 -2.753906 15.390625 -2.890625 C 15.535156 -3.023438 15.609375 -3.28125 15.609375 -3.65625 Z M 15.609375 -3.65625 " class="svg-elem-25"></path></g></g></g><g fill="#f58634" fill-opacity="1"><g transform="translate(261.868882, 261.285342)"><g><path d="M 15.921875 0 L 1.0625 0 L 1.0625 -2.53125 L 2.09375 -2.625 C 2.695312 -2.6875 3 -2.976562 3 -3.5 L 3 -18.046875 L 1.21875 -18.140625 L 1.21875 -20.796875 L 15.546875 -20.796875 L 15.546875 -15.609375 L 12.359375 -15.390625 L 12.359375 -16.640625 C 12.359375 -16.992188 12.304688 -17.242188 12.203125 -17.390625 C 12.097656 -17.535156 11.847656 -17.609375 11.453125 -17.609375 L 6.8125 -17.609375 L 6.8125 -12.265625 L 14.046875 -12.265625 L 14.046875 -9.078125 L 6.8125 -9.078125 L 6.8125 -3.21875 L 11.859375 -3.21875 C 12.234375 -3.21875 12.472656 -3.296875 12.578125 -3.453125 C 12.679688 -3.609375 12.734375 -3.863281 12.734375 -4.21875 L 12.734375 -5.78125 L 15.921875 -5.5625 Z M 15.921875 0 " class="svg-elem-26"></path></g></g></g><g fill="#f58634" fill-opacity="1"><g transform="translate(151.54724, 304.504183)"><g><path d="M 1.21875 -20.796875 L 10.046875 -20.796875 C 14.546875 -20.796875 16.796875 -19.054688 16.796875 -15.578125 C 16.796875 -13.660156 15.835938 -12.203125 13.921875 -11.203125 C 15.148438 -10.890625 16.113281 -10.316406 16.8125 -9.484375 C 17.507812 -8.648438 17.859375 -7.5625 17.859375 -6.21875 C 17.859375 -4.195312 17.175781 -2.65625 15.8125 -1.59375 C 14.445312 -0.53125 12.460938 0 9.859375 0 L 1.0625 0 L 1.0625 -2.53125 L 2.09375 -2.625 C 2.695312 -2.6875 3 -2.976562 3 -3.5 L 3 -18.046875 L 1.21875 -18.140625 Z M 6.8125 -9.484375 L 6.8125 -2.9375 L 9.765625 -2.9375 C 12.472656 -2.9375 13.828125 -4.039062 13.828125 -6.25 C 13.828125 -7.289062 13.488281 -8.085938 12.8125 -8.640625 C 12.132812 -9.203125 11.171875 -9.484375 9.921875 -9.484375 Z M 6.8125 -17.921875 L 6.8125 -12.265625 L 9.140625 -12.265625 C 10.429688 -12.265625 11.382812 -12.53125 12 -13.0625 C 12.613281 -13.59375 12.921875 -14.335938 12.921875 -15.296875 C 12.921875 -16.253906 12.613281 -16.929688 12 -17.328125 C 11.382812 -17.722656 10.503906 -17.921875 9.359375 -17.921875 Z M 6.8125 -17.921875 " class="svg-elem-27"></path></g></g></g><g fill="#f58634" fill-opacity="1"><g transform="translate(170.377391, 304.504183)"><g><path d="M 14.859375 -6.875 C 15.253906 -7.882812 15.453125 -8.847656 15.453125 -9.765625 C 15.453125 -10.054688 15.265625 -10.222656 14.890625 -10.265625 L 13.890625 -10.328125 L 13.890625 -12.765625 L 20.484375 -12.765625 L 20.484375 -10.234375 L 18.765625 -10.171875 C 18.765625 -8.160156 18.328125 -6.320312 17.453125 -4.65625 C 18.390625 -3.863281 19.703125 -2.863281 21.390625 -1.65625 L 19.328125 1.0625 C 18.078125 0.226562 16.765625 -0.75 15.390625 -1.875 C 13.847656 -0.332031 11.757812 0.4375 9.125 0.4375 C 6.5 0.4375 4.582031 -0.175781 3.375 -1.40625 C 2.164062 -2.632812 1.5625 -4.132812 1.5625 -5.90625 C 1.5625 -8.664062 2.832031 -10.835938 5.375 -12.421875 C 4.726562 -13.484375 4.40625 -14.628906 4.40625 -15.859375 C 4.40625 -17.441406 4.9375 -18.722656 6 -19.703125 C 7.0625 -20.679688 8.554688 -21.171875 10.484375 -21.171875 C 12.421875 -21.171875 14.304688 -20.742188 16.140625 -19.890625 L 16.140625 -15.171875 L 12.953125 -14.953125 L 12.953125 -16.859375 C 12.953125 -17.441406 12.734375 -17.804688 12.296875 -17.953125 C 11.734375 -18.117188 11.179688 -18.203125 10.640625 -18.203125 C 8.953125 -18.203125 8.109375 -17.398438 8.109375 -15.796875 C 8.109375 -13.671875 10.359375 -10.695312 14.859375 -6.875 Z M 12.765625 -4.0625 C 10.265625 -6.1875 8.375 -8.109375 7.09375 -9.828125 C 5.820312 -8.929688 5.1875 -7.707031 5.1875 -6.15625 C 5.1875 -5.09375 5.515625 -4.234375 6.171875 -3.578125 C 6.828125 -2.921875 7.867188 -2.59375 9.296875 -2.59375 C 10.734375 -2.59375 11.890625 -3.082031 12.765625 -4.0625 Z M 12.765625 -4.0625 " class="svg-elem-28"></path></g></g></g><g fill="#f58634" fill-opacity="1"><g transform="translate(192.710824, 304.504183)"><g><path d="M 1.21875 -20.796875 L 10.046875 -20.796875 C 14.546875 -20.796875 16.796875 -19.054688 16.796875 -15.578125 C 16.796875 -13.660156 15.835938 -12.203125 13.921875 -11.203125 C 15.148438 -10.890625 16.113281 -10.316406 16.8125 -9.484375 C 17.507812 -8.648438 17.859375 -7.5625 17.859375 -6.21875 C 17.859375 -4.195312 17.175781 -2.65625 15.8125 -1.59375 C 14.445312 -0.53125 12.460938 0 9.859375 0 L 1.0625 0 L 1.0625 -2.53125 L 2.09375 -2.625 C 2.695312 -2.6875 3 -2.976562 3 -3.5 L 3 -18.046875 L 1.21875 -18.140625 Z M 6.8125 -9.484375 L 6.8125 -2.9375 L 9.765625 -2.9375 C 12.472656 -2.9375 13.828125 -4.039062 13.828125 -6.25 C 13.828125 -7.289062 13.488281 -8.085938 12.8125 -8.640625 C 12.132812 -9.203125 11.171875 -9.484375 9.921875 -9.484375 Z M 6.8125 -17.921875 L 6.8125 -12.265625 L 9.140625 -12.265625 C 10.429688 -12.265625 11.382812 -12.53125 12 -13.0625 C 12.613281 -13.59375 12.921875 -14.335938 12.921875 -15.296875 C 12.921875 -16.253906 12.613281 -16.929688 12 -17.328125 C 11.382812 -17.722656 10.503906 -17.921875 9.359375 -17.921875 Z M 6.8125 -17.921875 " class="svg-elem-29"></path></g></g></g><g fill="#d9d9d9" fill-opacity="1"><g transform="translate(150.744385, 277.186067)"><g><path d="M 0.882812 0 L 2.769531 0 L 2.769531 -3.550781 L 5.800781 -3.550781 L 5.800781 0 L 7.6875 0 L 7.6875 -8.816406 L 5.800781 -8.816406 L 5.800781 -5.316406 L 2.769531 -5.316406 L 2.769531 -8.816406 L 0.882812 -8.816406 Z M 0.882812 0 " class="svg-elem-30"></path></g></g></g><g fill="#d9d9d9" fill-opacity="1"><g transform="translate(162.401194, 277.186067)"><g><path d="M 0.871094 0 L 6.90625 0 L 6.90625 -1.703125 L 2.757812 -1.703125 L 2.757812 -3.613281 L 5.910156 -3.613281 L 5.910156 -5.265625 L 2.757812 -5.265625 L 2.757812 -7.117188 L 6.867188 -7.117188 L 6.867188 -8.816406 L 0.871094 -8.816406 Z M 0.871094 0 " class="svg-elem-31"></path></g></g></g><g fill="#d9d9d9" fill-opacity="1"><g transform="translate(173.065182, 277.186067)"><g><path d="M 6.558594 0 L 8.53125 0 L 5.351562 -8.816406 L 3.367188 -8.816406 L 0.222656 0 L 2.234375 0 L 2.808594 -1.714844 L 5.960938 -1.714844 Z M 4.359375 -6.382812 L 5.425781 -3.265625 L 3.316406 -3.265625 Z M 4.359375 -6.382812 " class="svg-elem-32"></path></g></g></g><g fill="#d9d9d9" fill-opacity="1"><g transform="translate(184.908141, 277.186067)"><g><path d="M 3.019531 0 L 4.90625 0 L 4.90625 -7.152344 L 7.625 -7.152344 L 7.625 -8.804688 L 0.308594 -8.804688 L 0.308594 -7.152344 L 3.019531 -7.152344 Z M 3.019531 0 " class="svg-elem-33"></path></g></g></g><g fill="#d9d9d9" fill-opacity="1"><g transform="translate(195.932034, 277.186067)"><g><path d="M 0.871094 0 L 2.757812 0 L 2.757812 -8.816406 L 0.871094 -8.816406 Z M 0.871094 0 " class="svg-elem-34"></path></g></g></g><g fill="#d9d9d9" fill-opacity="1"><g transform="translate(202.661992, 277.186067)"><g><path d="M 0.871094 0 L 2.757812 0 L 2.757812 -5.550781 L 6.71875 0 L 8.457031 0 L 8.457031 -8.816406 L 6.558594 -8.816406 L 6.558594 -3.476562 L 2.671875 -8.816406 L 0.871094 -8.816406 Z M 0.871094 0 " class="svg-elem-35"></path></g></g></g><g fill="#d9d9d9" fill-opacity="1"><g transform="translate(215.075827, 277.186067)"><g><path d="M 4.65625 0.136719 C 6.621094 0.136719 8.496094 -0.882812 8.621094 -3.898438 L 8.621094 -4.804688 L 4.820312 -4.804688 L 4.820312 -3.328125 L 6.707031 -3.328125 C 6.519531 -2 5.738281 -1.492188 4.65625 -1.492188 C 3.550781 -1.492188 2.382812 -2.371094 2.382812 -4.410156 C 2.382812 -6.335938 3.539062 -7.316406 4.65625 -7.316406 C 5.738281 -7.316406 6.472656 -6.792969 6.65625 -5.863281 L 8.570312 -5.863281 C 8.273438 -7.960938 6.644531 -8.953125 4.65625 -8.953125 C 2.558594 -8.941406 0.496094 -7.441406 0.496094 -4.410156 C 0.496094 -1.144531 2.683594 0.136719 4.65625 0.136719 Z M 4.65625 0.136719 " class="svg-elem-36"></path></g></g></g></svg>


