<?xml version="1.0" encoding="utf-8"?>
<!-- Generator: Adobe Illustrator 25.0.0, SVG Export Plug-In . SVG Version: 6.00 Build 0)  -->
<svg version="1.1" id="Livello_1" xmlns="http://www.w3.org/2000/svg" xmlns:xlink="http://www.w3.org/1999/xlink" x="0px" y="0px"
	 viewBox="0 0 300 100" style="enable-background:new 0 0 300 100;" xml:space="preserve">
<style type="text/css">
	.st0{clip-path:url(#SVGID_2_);}
	.st1{fill-rule:evenodd;clip-rule:evenodd;fill:#FFFFFF;}
	.st2{fill:#7F8080;}
	.st3{fill:#BA4646;}
</style>
<g>
	<g>
		<defs>
			<rect id="SVGID_1_" x="71.5" y="13.8" width="146.7" height="29"/>
		</defs>
		<clipPath id="SVGID_2_">
			<use xlink:href="#SVGID_1_"  style="overflow:visible;"/>
		</clipPath>
		<g class="st0">
			<path class="st1" d="M142.5,33.3l12.5,6v3.3h10.7v-4.8l-16.3-7.9l20.5-9.9l36.6,17.7V41h10.7v-4.8l-13.7-6.6V17.1h-9.7v7.8
				l-23.3-11l-27.6,13L119,15.4L71.8,37.6v5l8.5,0.1v-2.9l38.2-18.3l17.6,8.5L142.5,33.3z"/>
		</g>
	</g>
</g>
<path class="st1" d="M114.5,28.8h3.5v3.5h-3.5V28.8z M118.7,32.9h3.5v3.5h-3.5V32.9z M114.5,32.9h3.5v3.5h-3.5V32.9z M118.7,28.8
	h3.5v3.5h-3.5V28.8z"/>
<path class="st1" d="M166,25.1h3.5v3.5H166V25.1z M170.1,29.2h3.5v3.5h-3.5V29.2z M166,29.2h3.5v3.5H166V29.2z M170.1,25.1h3.5v3.5
	h-3.5V25.1z"/>
<g>
	<g>
		<defs>
			<rect id="SVGID_3_" x="70" y="-121.2" width="132.2" height="153.7"/>
		</defs>
		<clipPath id="SVGID_4_">
			<use xlink:href="#SVGID_3_"  style="overflow:visible;"/>
		</clipPath>
	</g>
</g>
<g>
	<g transform="translate(112.47451, 244.842099)">
		<g>
			<path class="st2" d="M-50.6-190.6c0.5,0,0.9,0.1,1.2,0.4c0.2,0.3,0.4,0.6,0.4,1.1c0,1-0.5,1.4-1.5,1.4h-10.3v9.6h9.6
				c0.5,0,0.9,0.1,1.1,0.4c0.2,0.3,0.4,0.6,0.4,1.1c0,1-0.5,1.5-1.5,1.5h-9.6v10.7c0,0.5-0.2,0.9-0.5,1.2c-0.3,0.3-0.7,0.4-1.1,0.4
				c-0.4,0-0.8-0.1-1.2-0.4c-0.4-0.3-0.5-0.7-0.5-1.2v-23.8c0-0.8,0.2-1.4,0.6-1.8c0.4-0.4,1.1-0.6,2.1-0.6
				C-61.4-190.6-50.6-190.6-50.6-190.6z"/>
		</g>
	</g>
</g>
<g>
	<g transform="translate(127.175612, 244.842099)">
		<g>
			<path class="st2" d="M-43.7-170.4h-11.4l-2.4,6.3c-0.2,0.5-0.4,0.8-0.8,1c-0.3,0.1-0.7,0.2-1.2,0.2c-0.4,0-0.8-0.1-1.1-0.3
				c-0.3-0.2-0.4-0.4-0.4-0.8c0-0.2,0-0.3,0.1-0.5l9.1-24.8c0.3-0.7,0.6-1.1,0.9-1.4c0.4-0.3,0.8-0.4,1.4-0.4c0.6,0,1.1,0.1,1.5,0.4
				c0.4,0.2,0.7,0.7,0.9,1.4l9.1,24.8c0.1,0.2,0.1,0.3,0.1,0.5c0,0.4-0.1,0.6-0.4,0.8c-0.2,0.2-0.6,0.3-1,0.3
				c-0.5,0-0.9-0.1-1.2-0.3c-0.3-0.2-0.6-0.5-0.8-1L-43.7-170.4z M-54.1-173.4h9.4l-4.7-12.7L-54.1-173.4z"/>
		</g>
	</g>
</g>
<g>
	<g transform="translate(146.210912, 244.842099)">
		<g>
			<path class="st2" d="M-43.4-190.6c2.7,0,4.8,0.6,6.1,1.8c1.4,1.2,2.1,2.9,2.1,5.2c0,1.6-0.3,3-0.9,4c-0.6,1.1-1.5,1.9-2.6,2.6
				c1.3,0.5,2.2,1.3,2.9,2.2c0.7,1,1,2.2,1,3.9c0,2.7-0.7,4.6-2.1,5.9c-1.4,1.2-3.6,1.8-6.5,1.8h-6.7c-1,0-1.8-0.2-2.1-0.6
				c-0.4-0.4-0.6-1-0.6-1.8v-22.6c0-0.8,0.2-1.4,0.6-1.8c0.4-0.4,1.1-0.6,2.1-0.6C-50.1-190.6-43.4-190.6-43.4-190.6z M-49.5-178.4
				h5.9c1.7,0,3-0.4,3.9-1.1s1.3-2,1.3-3.8c0-1.6-0.4-2.7-1.3-3.4c-0.9-0.7-2.2-1-3.9-1h-5.9V-178.4z M-49.5-175.5v9.2h5.8
				c1.9,0,3.3-0.4,4.2-1.1s1.4-2,1.4-3.9c0-1.6-0.5-2.7-1.4-3.4c-0.9-0.6-2.3-0.9-4.2-0.9h-5.8V-175.5z"/>
		</g>
	</g>
</g>
<g>
	<g transform="translate(163.459823, 244.842099)">
		<g>
			<path class="st2" d="M-44.3-163.3c-1,0-1.8-0.2-2.1-0.6c-0.4-0.4-0.6-1-0.6-1.8v-23.8c0-0.5,0.2-0.9,0.5-1.2
				c0.3-0.3,0.7-0.4,1.2-0.4c0.4,0,0.8,0.1,1.1,0.4c0.3,0.2,0.5,0.6,0.5,1.2v23.2h10.5c0.5,0,0.9,0.1,1.1,0.4
				c0.2,0.3,0.4,0.6,0.4,1.1c0,1-0.5,1.4-1.5,1.4L-44.3-163.3L-44.3-163.3z"/>
		</g>
	</g>
</g>
<g>
	<g transform="translate(178.570921, 244.842099)">
		<g>
			<path class="st2" d="M-31.3-162.9c-1.7,0-3.2-0.3-4.6-0.8s-2.6-1.4-3.6-2.5c-1-1.1-1.7-2.6-2.3-4.4c-0.5-1.8-0.8-3.9-0.8-6.4
				s0.3-4.6,0.8-6.4s1.3-3.2,2.3-4.4c1-1.1,2.2-2,3.6-2.5s2.9-0.8,4.6-0.8c1.7,0,3.3,0.3,4.7,0.8c1.4,0.5,2.6,1.4,3.6,2.5
				c1,1.1,1.8,2.6,2.3,4.4c0.6,1.8,0.8,3.9,0.8,6.4s-0.3,4.6-0.8,6.4s-1.3,3.2-2.3,4.4c-1,1.1-2.2,2-3.6,2.5
				C-28-163.2-29.6-162.9-31.3-162.9z M-31.3-165.8c1.2,0,2.3-0.2,3.3-0.6c1-0.4,1.8-1,2.5-1.9c0.7-0.9,1.2-2.1,1.6-3.5
				c0.4-1.4,0.6-3.1,0.6-5.1s-0.2-3.7-0.6-5.1c-0.4-1.4-0.9-2.5-1.6-3.4c-0.7-0.9-1.5-1.5-2.5-2c-1-0.4-2.1-0.6-3.3-0.6
				c-1.2,0-2.3,0.2-3.3,0.6c-1,0.4-1.8,1.1-2.5,2c-0.7,0.9-1.2,2-1.6,3.4c-0.4,1.4-0.6,3.1-0.6,5.1s0.2,3.7,0.6,5.1
				c0.4,1.4,0.9,2.6,1.6,3.5c0.7,0.9,1.6,1.5,2.5,1.9C-33.6-166-32.5-165.8-31.3-165.8z"/>
		</g>
	</g>
</g>
<g>
	<g transform="translate(208.169816, 244.842099)">
		<g>
			<path class="st3" d="M-22.7-190.6c2.7,0,4.8,0.6,6.1,1.8c1.4,1.2,2.1,2.9,2.1,5.2c0,1.6-0.3,3-0.9,4c-0.6,1.1-1.5,1.9-2.6,2.6
				c1.3,0.5,2.2,1.3,2.9,2.2c0.7,1,1,2.2,1,3.9c0,2.7-0.7,4.6-2.1,5.9c-1.4,1.2-3.6,1.8-6.5,1.8h-6.7c-1,0-1.8-0.2-2.1-0.6
				c-0.4-0.4-0.6-1-0.6-1.8v-22.6c0-0.8,0.2-1.4,0.6-1.8c0.4-0.4,1.1-0.6,2.1-0.6C-29.4-190.6-22.7-190.6-22.7-190.6z M-28.9-178.4
				h5.9c1.7,0,3-0.4,3.9-1.1s1.3-2,1.3-3.8c0-1.6-0.4-2.7-1.3-3.4c-0.9-0.7-2.2-1-3.9-1h-5.8L-28.9-178.4L-28.9-178.4z M-28.9-175.5
				v9.2h5.8c1.9,0,3.3-0.4,4.2-1.1c0.9-0.7,1.4-2,1.4-3.9c0-1.6-0.5-2.7-1.4-3.4c-0.9-0.6-2.3-0.9-4.2-0.9h-5.8V-175.5z"/>
		</g>
	</g>
</g>
<g>
	<g transform="translate(225.418727, 244.842099)">
		<g>
			<path class="st3" d="M-11.1-186.8c0,0.4-0.1,0.8-0.4,1.1s-0.6,0.4-1,0.4c-0.5,0-0.9-0.1-1.2-0.4c-0.3-0.3-0.5-0.6-0.8-1
				c-0.3-0.3-0.6-0.6-1-0.9s-1-0.4-1.8-0.4c-1,0-1.9,0.3-2.5,0.9c-0.7,0.6-1,1.3-1,2.4c0,0.9,0.2,1.7,0.6,2.5s1,1.8,1.9,2.9l5.9,7.8
				c0.2-0.4,0.4-0.8,0.6-1.2c0.2-0.4,0.3-0.8,0.5-1.2l1.3-3.1c0.3-0.8,0.7-1.4,1.2-1.8c0.5-0.4,1.2-0.5,2.1-0.5h1.5
				c0.5,0,0.9,0.1,1.1,0.4s0.4,0.6,0.4,1.1c0,1-0.5,1.4-1.5,1.4h-1.5l-1.6,3.9c-0.3,0.7-0.6,1.4-0.9,2c-0.3,0.6-0.6,1.3-1,1.9
				c0.7,0.9,1.3,1.5,1.8,2s1.1,0.7,1.6,0.7c0.3,0,0.5,0,0.7-0.1c0.2-0.1,0.3-0.1,0.5-0.2c0.2-0.1,0.3-0.2,0.5-0.2
				c0.2-0.1,0.3-0.1,0.5-0.1c0.4,0,0.7,0.2,1,0.5s0.4,0.6,0.4,1.1c0,0.4-0.1,0.7-0.3,1c-0.2,0.3-0.5,0.5-0.8,0.7s-0.7,0.3-1.1,0.4
				c-0.5-0.1-0.9-0.1-1.3-0.1c-1.1,0-2.2-0.3-3.1-0.8c-0.9-0.6-1.8-1.3-2.5-2.2c-0.9,1-2,1.8-3.2,2.3s-2.6,0.8-4.3,0.8
				c-1.4,0-2.6-0.2-3.6-0.6c-1-0.4-1.8-1-2.4-1.7s-1.1-1.5-1.4-2.3s-0.4-1.7-0.4-2.5c0-1.9,0.5-3.5,1.5-4.8c1-1.4,2.5-2.6,4.4-3.7
				c-0.9-1.3-1.5-2.4-1.9-3.4c-0.3-1-0.5-1.9-0.5-2.9s0.2-1.9,0.5-2.6c0.3-0.8,0.8-1.4,1.4-1.9s1.3-0.9,2.1-1.2
				c0.8-0.3,1.7-0.4,2.7-0.4c1.2,0,2.3,0.2,3.3,0.6c0.9,0.4,1.7,0.9,2.3,1.6c0.2,0.3,0.4,0.6,0.5,0.9
				C-11.1-187.6-11.1-187.2-11.1-186.8z M-19.8-165.8c1.2,0,2.3-0.2,3.2-0.8c0.9-0.5,1.7-1.2,2.4-2l-5.7-7.5
				c-1.4,0.7-2.4,1.6-3.2,2.5c-0.8,0.9-1.1,2.1-1.1,3.4c0,0.5,0.1,1.1,0.2,1.6s0.4,1,0.7,1.4c0.4,0.4,0.8,0.8,1.4,1
				C-21.4-166-20.6-165.8-19.8-165.8z"/>
		</g>
	</g>
</g>
<g>
	<g transform="translate(245.274008, 244.842099)">
		<g>
			<path class="st3" d="M-10.4-190.6c2.7,0,4.8,0.6,6.1,1.8c1.4,1.2,2.1,2.9,2.1,5.2c0,1.6-0.3,3-0.9,4c-0.6,1.1-1.5,1.9-2.6,2.6
				c1.3,0.5,2.2,1.3,2.9,2.2c0.7,1,1,2.2,1,3.9c0,2.7-0.7,4.6-2.1,5.9c-1.4,1.2-3.6,1.8-6.5,1.8h-6.7c-1,0-1.8-0.2-2.1-0.6
				c-0.4-0.4-0.6-1-0.6-1.8v-22.6c0-0.8,0.2-1.4,0.6-1.8c0.4-0.4,1.1-0.6,2.1-0.6C-17.1-190.6-10.4-190.6-10.4-190.6z M-16.5-178.4
				h5.9c1.7,0,3-0.4,3.9-1.1s1.3-2,1.3-3.8c0-1.6-0.4-2.7-1.3-3.4c-0.9-0.7-2.2-1-3.9-1h-5.9V-178.4z M-16.5-175.5v9.2h5.8
				c1.9,0,3.3-0.4,4.2-1.1c0.9-0.7,1.4-2,1.4-3.9c0-1.6-0.5-2.7-1.4-3.4c-0.9-0.6-2.3-0.9-4.2-0.9h-5.8V-175.5z"/>
		</g>
	</g>
</g>
</svg>
